/* XPM */
static char *c94672d294b84753cd987e1787ea8abfRfof772jxh34KuyD[] = {
/* columns rows colors chars-per-pixel */
"64 64 46 1 ",
"  c black",
". c #000303",
"X c #040000",
"o c #050303",
"O c #010606",
"+ c #000707",
"@ c #040404",
"# c #0B0000",
"$ c #0C0000",
"% c #000B00",
"& c #000C00",
"* c #000905",
"= c #030909",
"- c #000B0B",
"; c #000C09",
": c #000C0C",
"> c #000D0D",
", c #330000",
"< c #360000",
"1 c gray27",
"2 c gray28",
"3 c #DD7D46",
"4 c #E17D46",
"5 c #E37D46",
"6 c #E67D46",
"7 c #EA7D46",
"8 c #43DB79",
"9 c #44DF7A",
"0 c #46DF7D",
"q c #45E27B",
"w c #45E57B",
"e c #46E07D",
"r c #46E17D",
"t c #46E47C",
"y c #46E67D",
"u c #46E77D",
"i c #46E87C",
"p c #46EA7D",
"a c #46A7DE",
"s c #46A8DF",
"d c #46AAE1",
"f c #46ACE3",
"g c #46AEE5",
"h c #45AFE6",
"j c #46B0E7",
"k c #46B3EA",
/* pixels */
"   rp&dk-                2            2X          .    Og* rp.  ",
"  rp&  dk>  rp& rp& rp% 22 2        2 22 Opu  pp .uu  *gdO  pr  ",
" 0p%    ak> 0& rp& rpO     2        2   X  pp .pu  u..gd+O   wu.",
"pp&   4$ sk-  rp& rp%X2  222        222  2 %pp .pu  *gdO@4    uu",
"p&   47$  ak> r& rp&@ 22     2    2     22  Opp .u OgdOO 67X   u",
"    47$ 4$ ak-  rp% 2  22   22 22 22   22  2  pu  %ggO@4 X76X   ",
"k> 37$ 37$  ak>.r%  22  22     22     22  22 XOu OggOOX67 X66 -O",
"kk>   47$ 4$ dk>  2  22  22  222222  22  22  2  Ogg.X4 X76X X@fd",
" sk> 37$ 47$  d-  22  22  22        22  22  22  OdOOX66XX64 =fdO",
"  sk>   37$ 4#  2  22  22      22      22  22  2  @4 X66X X=fdOO",
"   dk> 37$ 47$  22  22         22         22  22  X66XX76 =fd-  ",
"    ak>X  47$ 2  22    <<<<<        <<<<<    22  2 X76X  -fdO&  ",
" 0p% dk- 37$. 22    <<<<   < 222222 <   <<<<    22  X74 OgdOOur ",
" r& . ak>   .@     <<    < <        < <    <<     @    OkaO%  u ",
"   rp& d-  22o<<<<<<  <<<< <<< 22 <<< <<<<  <<<<<<@22  OdO%rp. O",
"  0p&      .2o<      <<  <   < 22 <   <  <<      <X2@    OO up  ",
" rp& 0p% 22 @@< <<<<<<   << <<    << <<   <<<<<< <@O@22 Ouu Opu ",
" 0& rp&  @22@<< <      <  < <  22  < <  <      < <<X22@   pw &u.",
"   0p&X22@ 2 <  < <<<<<<< < < 2222 < < <<<<<<< <  <@2 @22O wuO  ",
"  rp&   22@@@< << <     < < <      < < <     < << <O@@22@ @Ouu  ",
" 0p&@22@ 22@<< <  < <<< < < <<<<<<<< < < <<< <  < <<X22 @22  uu ",
" 0%  @22@@2@<  < << < < < <    <<    < < < < << <  <@2@X22@  Ou ",
"   22@ 22@@@< << <  <<< < <<<< << <<<< < <<<  < << <O@O22@@22 . ",
"  @ 22@@22 << <  <<     <    < << <    <     <<  < <<X22@ 22@X  ",
" 2@@@22@@2@<  <   <<<<<<<<<< < << < <<<<<<<<<<   <  < 2@@22 @@2 ",
"22@2 @22 @@< <<<<          < < << < <          <<<< <@@ 22@@2@22",
"@@ 2@@@22@<<    <<<<<<<<<< < < << < < <<<<<<<<<<    <<@22@@@2  @",
"@222 @@ 2 <<<<< <<       < < < << < < <       << <<<<<@2@ @ 222@",
" @@@ 2@@@@<@@ <    <<<<< <   < << <   < <<<<<    <@@@<@@@@2 @ @@",
"@@@ 22@2@ @ 2@<<<<<< @ < <<<<< << <<<<< < @@<<<<<<@2 @@ 2@22@@ @",
" @ @@@ 2@ @@2@@@@@ @@2@<       <<       <@2@@@ @@@ 2@@@@2 @@@@@@",
"@@@@@222@22@222 22@222@<<<<<<<<<<<<<<<<<<@222 22@222 22@222@ @ @",
" @ @@222@22@222@22@222@<<<<<<<<<<<<<<<<<<@222@22@222@22 222 @ @@",
"@@@@ @@2@@ @2@@ @@..@2.<       <<       <@2 @@@ @ @2 @@@2@@@@@ @",
"@@ @22 2 @ @2 <,<<<,@X@< <<<<< << <<<<< <@ @<<<<<<@2@@@@2 22@@@@",
"@ @@@2@@@@<@@@<    <,<<< <   < << <   < <<<<<    < @ <@ @@2@ @ @",
"@222@@@@2@<<<,< <<       < < < << < < <       << <<<<<@2@@@@222@",
"@ @2 @ 22 <<    <<<<<<<<<< < < << < < <<<<<<<<<<    <<@22 @ 2@ @",
"22@2@@22@ @< <<<<          < < << < <          <<<< <@@@22@@2@22",
" 2 @ 22@@2@<  <   <<<<<<<<<< < << < <<<<<<<<<<   <  <@2 @22@ @2 ",
"  oo22o.22@<< <  <<     <    < << <    <     <<  < << 22 @22@   ",
"   22.o22 @@< << <  <<< < <<<< << <<<< < <<<  < << <@@@22@@22 . ",
".0%Xo.22@@2 <  < << < < < <    <<    < < < < << <  <@2 @22    r.",
".rp% 22o@22@<< <  < <<< < < <<<<<<<< < < <<< <  < <<@22@@22 Ouu.",
"  rp% o.22 @ < << <     < < <      < < <     < << <  @22@XX up. ",
"   up% 22@@2@<  < <<<<<<< < < 2222 < < <<<<<<< <  <@2o@22 %uu   ",
" u. up% @@22@<< <      <  < <  22  < <  <      < <<@22@. .uu..u ",
" rp% rp. 22@ @< <<<<<<   << <<    << <<   <<<<<< < @.22 .up..up ",
"  up&     @@2@<      <<  <   < 22 <   <  <<      <@2@    .O pp  ",
" . ru& g=  22 <<<<<<  <<<< <<< 22 <<< <<<<  <<<<<<@22  OfO*ru. O",
" 0%   dk=   @@     <<    < <        < <    <<     @    OkdO&O u ",
" up. dk= 47$  22    <<<<   < 222222 <   <<<<    22   67 =fa  ru ",
"   Ofk=   47$ 2  22    <<<<<        <<<<<    22  2 X66X  =jsO%. ",
"   dkO 47# 67X  22  22         22         22  22  X67X 64 =ja%  ",
"  gk-   47X 4$+ 2  22  22      22      22  22  2  X7XX77X  =gaO.",
".gk* 47$ 67#  gO  22  22  22        22  22  22  OdOXX46  74 -kaO",
"kk- X 47# 4# dkO. 2  22  22  222222  22  22  2 O.js @6XX77X X=jd",
" O 67# 47X  gk- 0%X 22  22     22     22  22   r =jsO@X67  64 OO",
"    47# 4#Ogk=  rp% 2  22   22 22 22   22  2X.pp .-js X4  77X   ",
"u    47X  dk* r% rp% .22     2    2     22  .pu .w -kdO@X76    9",
"pp    4# dk=  rp. rp  2  222        222  2..uu..ww  >gd @6X   qp",
" qp     gkO y% rp% up%X    2        2    X%ur.%up. p =gdOX   qq ",
"  rwO  dk=  rp% up% prO 22 2        2 22  ru..uu%.rp  =ks   ur  ",
"   qu  j=           ..   2            2X  .%  ..  .    =gO 8u&  "
};
